<svg width="300" height="300" viewBox="0 0 300 300" xmlns="http://www.w3.org/2000/svg">
  <defs>
    <linearGradient id="bagGradient" x1="0%" y1="0%" x2="100%" y2="100%">
      <stop offset="0%" style="stop-color:#ffffff;stop-opacity:1" />
      <stop offset="100%" style="stop-color:#f5f5f5;stop-opacity:1" />
    </linearGradient>
  </defs>
  
  <!-- Background -->
  <rect x="0" y="0" width="300" height="300" fill="#f9f9f9"/>
  
  <!-- Rice bag -->
  <rect x="70" y="50" width="160" height="220" rx="15" fill="url(#bagGradient)" stroke="#e0e0e0" stroke-width="2"/>
  
  <!-- Brand label -->
  <rect x="85" y="70" width="130" height="50" rx="5" fill="#9c27b0" stroke="#7b1fa2" stroke-width="1"/>
  <text x="150" y="90" text-anchor="middle" fill="white" font-family="Arial, sans-serif" font-size="16" font-weight="bold">MAHATMA</text>
  <text x="150" y="105" text-anchor="middle" fill="white" font-family="Arial, sans-serif" font-size="12">JASMINE RICE</text>
  
  <!-- Weight label -->
  <rect x="85" y="130" width="130" height="25" rx="3" fill="#f39c12" stroke="#d68910" stroke-width="1"/>
  <text x="150" y="147" text-anchor="middle" fill="white" font-family="Arial, sans-serif" font-size="14" font-weight="bold">2 LB</text>
  
  <!-- Rice grains illustration -->
  <rect x="95" y="165" width="110" height="80" rx="5" fill="#fff9e6" stroke="#f1c40f" stroke-width="1"/>
  
  <!-- Individual jasmine rice grains (longer and thinner) -->
  <ellipse cx="120" cy="180" rx="2" ry="10" fill="#f8f8ff" opacity="0.9"/>
  <ellipse cx="135" cy="175" rx="2" ry="10" fill="#f8f8ff" opacity="0.9"/>
  <ellipse cx="150" cy="182" rx="2" ry="10" fill="#f8f8ff" opacity="0.9"/>
  <ellipse cx="165" cy="178" rx="2" ry="10" fill="#f8f8ff" opacity="0.9"/>
  <ellipse cx="180" cy="185" rx="2" ry="10" fill="#f8f8ff" opacity="0.9"/>
  
  <ellipse cx="110" cy="200" rx="2" ry="10" fill="#f8f8ff" opacity="0.9"/>
  <ellipse cx="125" cy="195" rx="2" ry="10" fill="#f8f8ff" opacity="0.9"/>
  <ellipse cx="140" cy="202" rx="2" ry="10" fill="#f8f8ff" opacity="0.9"/>
  <ellipse cx="155" cy="198" rx="2" ry="10" fill="#f8f8ff" opacity="0.9"/>
  <ellipse cx="170" cy="205" rx="2" ry="10" fill="#f8f8ff" opacity="0.9"/>
  <ellipse cx="185" cy="201" rx="2" ry="10" fill="#f8f8ff" opacity="0.9"/>
  
  <ellipse cx="115" cy="220" rx="2" ry="10" fill="#f8f8ff" opacity="0.9"/>
  <ellipse cx="130" cy="215" rx="2" ry="10" fill="#f8f8ff" opacity="0.9"/>
  <ellipse cx="145" cy="222" rx="2" ry="10" fill="#f8f8ff" opacity="0.9"/>
  <ellipse cx="160" cy="218" rx="2" ry="10" fill="#f8f8ff" opacity="0.9"/>
  <ellipse cx="175" cy="225" rx="2" ry="10" fill="#f8f8ff" opacity="0.9"/>
  <ellipse cx="190" cy="221" rx="2" ry="10" fill="#f8f8ff" opacity="0.9"/>
  
  <!-- Product features -->
  <text x="150" y="260" text-anchor="middle" fill="#333" font-family="Arial, sans-serif" font-size="10">FRAGRANT • AROMATIC</text>
  
  <!-- Thai flag accent -->
  <rect x="200" y="75" width="15" height="5" fill="#ed1c24"/>
  <rect x="200" y="80" width="15" height="5" fill="#ffffff"/>
  <rect x="200" y="85" width="15" height="5" fill="#241d4f"/>
  
  <!-- Shadow -->
  <ellipse cx="150" cy="280" rx="70" ry="8" fill="#000000" opacity="0.1"/>
</svg> 