<svg viewBox="0 0 300 300" xmlns="http://www.w3.org/2000/svg">
  <!-- Background -->
  <rect width="300" height="300" fill="#f8f9fa"/>
  
  <!-- Carton shadow -->
  <ellipse cx="150" cy="270" rx="80" ry="15" fill="#00000020"/>
  
  <!-- Egg carton -->
  <rect x="70" y="80" width="160" height="180" rx="10" fill="#ffffff" stroke="#e0e0e0" stroke-width="2"/>
  
  <!-- Great Value brand section -->
  <rect x="75" y="85" width="150" height="50" rx="5" fill="#ffa500"/>
  
  <!-- Brand text -->
  <text x="150" y="105" font-family="Arial, sans-serif" font-size="16" font-weight="bold" fill="white" text-anchor="middle">Great Value</text>
  <text x="150" y="120" font-family="Arial, sans-serif" font-size="10" fill="white" text-anchor="middle">FRESH</text>
  
  <!-- Egg type section -->
  <rect x="75" y="140" width="150" height="40" fill="#fff8dc"/>
  <text x="150" y="155" font-family="Arial, sans-serif" font-size="16" font-weight="bold" fill="#ffa500" text-anchor="middle">EXTRA LARGE</text>
  <text x="150" y="170" font-family="Arial, sans-serif" font-size="12" fill="#ffa500" text-anchor="middle">Grade A Eggs</text>
  
  <!-- Egg illustrations -->
  <ellipse cx="120" cy="200" rx="12" ry="18" fill="#faf0e6"/>
  <ellipse cx="150" cy="200" rx="12" ry="18" fill="#faf0e6"/>
  <ellipse cx="180" cy="200" rx="12" ry="18" fill="#faf0e6"/>
  
  <!-- Egg highlights -->
  <ellipse cx="117" cy="195" rx="3" ry="5" fill="#ffffff"/>
  <ellipse cx="147" cy="195" rx="3" ry="5" fill="#ffffff"/>
  <ellipse cx="177" cy="195" rx="3" ry="5" fill="#ffffff"/>
  
  <!-- Grade A badge -->
  <circle cx="120" cy="230" r="12" fill="#ffa500"/>
  <text x="120" y="225" font-family="Arial, sans-serif" font-size="10" font-weight="bold" fill="white" text-anchor="middle">GRADE</text>
  <text x="120" y="237" font-family="Arial, sans-serif" font-size="12" font-weight="bold" fill="white" text-anchor="middle">A</text>
  
  <!-- Extra Large badge -->
  <rect x="165" y="225" width="30" height="15" rx="3" fill="#ff8c00"/>
  <text x="180" y="235" font-family="Arial, sans-serif" font-size="8" fill="white" text-anchor="middle">XL SIZE</text>
  
  <!-- Count and details -->
  <text x="150" y="250" font-family="Arial, sans-serif" font-size="12" fill="#666" text-anchor="middle">12 Count</text>
  
  <!-- Carton lid line -->
  <line x1="75" y1="140" x2="225" y2="140" stroke="#ddd" stroke-width="1"/>
  
  <!-- Shine effect -->
  <ellipse cx="120" cy="160" rx="10" ry="30" fill="#ffffff30"/>
</svg> 