<svg width="300" height="300" viewBox="0 0 300 300" xmlns="http://www.w3.org/2000/svg">
  <defs>
    <linearGradient id="cartonGradient" x1="0%" y1="0%" x2="100%" y2="100%">
      <stop offset="0%" style="stop-color:#f8f9fa;stop-opacity:1" />
      <stop offset="100%" style="stop-color:#e9ecef;stop-opacity:1" />
    </linearGradient>
    <linearGradient id="eggGradient" x1="0%" y1="0%" x2="100%" y2="100%">
      <stop offset="0%" style="stop-color:#ffffff;stop-opacity:1" />
      <stop offset="100%" style="stop-color:#f5f5f5;stop-opacity:1" />
    </linearGradient>
  </defs>
  
  <!-- Background -->
  <rect x="0" y="0" width="300" height="300" fill="#f8f9fa"/>
  
  <!-- Egg carton -->
  <rect x="60" y="100" width="180" height="120" rx="10" fill="url(#cartonGradient)" stroke="#d0d0d0" stroke-width="2"/>
  
  <!-- Carton dividers -->
  <path d="M90 110 L90 210" stroke="#c0c0c0" stroke-width="1"/>
  <path d="M120 110 L120 210" stroke="#c0c0c0" stroke-width="1"/>
  <path d="M150 110 L150 210" stroke="#c0c0c0" stroke-width="1"/>
  <path d="M180 110 L180 210" stroke="#c0c0c0" stroke-width="1"/>
  <path d="M210 110 L210 210" stroke="#c0c0c0" stroke-width="1"/>
  <path d="M70 150 L230 150" stroke="#c0c0c0" stroke-width="1"/>
  
  <!-- Eggs -->
  <ellipse cx="75" cy="130" rx="12" ry="15" fill="url(#eggGradient)" stroke="#e0e0e0" stroke-width="1"/>
  <ellipse cx="105" cy="130" rx="12" ry="15" fill="url(#eggGradient)" stroke="#e0e0e0" stroke-width="1"/>
  <ellipse cx="135" cy="130" rx="12" ry="15" fill="url(#eggGradient)" stroke="#e0e0e0" stroke-width="1"/>
  <ellipse cx="165" cy="130" rx="12" ry="15" fill="url(#eggGradient)" stroke="#e0e0e0" stroke-width="1"/>
  <ellipse cx="195" cy="130" rx="12" ry="15" fill="url(#eggGradient)" stroke="#e0e0e0" stroke-width="1"/>
  <ellipse cx="225" cy="130" rx="12" ry="15" fill="url(#eggGradient)" stroke="#e0e0e0" stroke-width="1"/>
  
  <ellipse cx="75" cy="180" rx="12" ry="15" fill="url(#eggGradient)" stroke="#e0e0e0" stroke-width="1"/>
  <ellipse cx="105" cy="180" rx="12" ry="15" fill="url(#eggGradient)" stroke="#e0e0e0" stroke-width="1"/>
  <ellipse cx="135" cy="180" rx="12" ry="15" fill="url(#eggGradient)" stroke="#e0e0e0" stroke-width="1"/>
  <ellipse cx="165" cy="180" rx="12" ry="15" fill="url(#eggGradient)" stroke="#e0e0e0" stroke-width="1"/>
  <ellipse cx="195" cy="180" rx="12" ry="15" fill="url(#eggGradient)" stroke="#e0e0e0" stroke-width="1"/>
  <ellipse cx="225" cy="180" rx="12" ry="15" fill="url(#eggGradient)" stroke="#e0e0e0" stroke-width="1"/>
  
  <!-- Carton label -->
  <rect x="70" y="230" width="160" height="30" rx="5" fill="#ffffff" stroke="#d0d0d0" stroke-width="1"/>
  <text x="150" y="245" text-anchor="middle" fill="#333" font-family="Arial, sans-serif" font-size="12" font-weight="bold">LARGE GRADE A EGGS</text>
  <text x="150" y="255" text-anchor="middle" fill="#666" font-family="Arial, sans-serif" font-size="10">12 COUNT</text>
  
  <!-- Grade A badge -->
  <circle cx="210" cy="80" r="20" fill="#27ae60" stroke="#1e8449" stroke-width="2"/>
  <text x="210" y="78" text-anchor="middle" fill="white" font-family="Arial, sans-serif" font-size="10" font-weight="bold">GRADE</text>
  <text x="210" y="88" text-anchor="middle" fill="white" font-family="Arial, sans-serif" font-size="14" font-weight="bold">A</text>
  
  <!-- Shadow -->
  <ellipse cx="150" cy="270" rx="80" ry="8" fill="#000000" opacity="0.1"/>
</svg> 