<svg viewBox="0 0 300 300" xmlns="http://www.w3.org/2000/svg">
  <!-- Background -->
  <rect width="300" height="300" fill="#f8f9fa"/>
  
  <!-- Container shadow -->
  <ellipse cx="150" cy="260" rx="70" ry="15" fill="#00000020"/>
  
  <!-- Yogurt container -->
  <rect x="80" y="60" width="140" height="180" rx="12" fill="#ffffff" stroke="#e0e0e0" stroke-width="2"/>
  
  <!-- Stonyfield brand area -->
  <rect x="85" y="65" width="130" height="50" rx="8" fill="#2d5016"/>
  
  <!-- Stonyfield logo -->
  <text x="150" y="85" font-family="Arial, sans-serif" font-size="16" font-weight="bold" fill="white" text-anchor="middle">Stonyfield</text>
  <text x="150" y="105" font-family="Arial, sans-serif" font-size="12" fill="white" text-anchor="middle">ORGANIC</text>
  
  <!-- Greek yogurt section -->
  <rect x="85" y="120" width="130" height="40" fill="#f5f5dc"/>
  <text x="150" y="135" font-family="Arial, sans-serif" font-size="14" font-weight="bold" fill="#2d5016" text-anchor="middle">GREEK</text>
  <text x="150" y="150" font-family="Arial, sans-serif" font-size="10" fill="#2d5016" text-anchor="middle">Plain • Whole Milk</text>
  
  <!-- Yogurt illustration -->
  <ellipse cx="150" cy="185" rx="35" ry="25" fill="#fffef0"/>
  <ellipse cx="150" cy="180" rx="30" ry="20" fill="#f5f5dc"/>
  
  <!-- Organic certification symbol -->
  <circle cx="120" cy="175" r="8" fill="#2d5016"/>
  <text x="120" y="180" font-family="Arial, sans-serif" font-size="8" fill="white" text-anchor="middle">USDA</text>
  
  <!-- Greek column design element -->
  <rect x="170" y="170" width="3" height="20" fill="#2d5016"/>
  <rect x="175" y="170" width="3" height="20" fill="#2d5016"/>
  <rect x="180" y="170" width="3" height="20" fill="#2d5016"/>
  <rect x="169" y="169" width="15" height="2" fill="#2d5016"/>
  <rect x="169" y="190" width="15" height="2" fill="#2d5016"/>
  
  <!-- Size and details -->
  <text x="150" y="205" font-family="Arial, sans-serif" font-size="10" fill="#666" text-anchor="middle">32 oz (907g)</text>
  <text x="150" y="220" font-family="Arial, sans-serif" font-size="9" fill="#666" text-anchor="middle">20g Protein</text>
  
  <!-- Lid -->
  <ellipse cx="150" cy="60" rx="70" ry="8" fill="#2d5016"/>
  <ellipse cx="150" cy="58" rx="70" ry="8" fill="#4a6b2a"/>
  <ellipse cx="150" cy="56" rx="65" ry="7" fill="#6b8e3d"/>
  
  <!-- Shine effect -->
  <ellipse cx="130" cy="140" rx="15" ry="40" fill="#ffffff30"/>
</svg> 