<svg width="300" height="300" viewBox="0 0 300 300" xmlns="http://www.w3.org/2000/svg">
  <defs>
    <linearGradient id="chickenGradient" x1="0%" y1="0%" x2="100%" y2="100%">
      <stop offset="0%" style="stop-color:#ffeaa7;stop-opacity:1" />
      <stop offset="50%" style="stop-color:#fdcb6e;stop-opacity:1" />
      <stop offset="100%" style="stop-color:#f39c12;stop-opacity:1" />
    </linearGradient>
  </defs>
  
  <!-- Background -->
  <rect x="0" y="0" width="300" height="300" fill="#f8f8f8"/>
  
  <!-- Chicken breast shape -->
  <path d="M80 120 Q120 100 160 110 Q200 120 220 140 Q230 160 225 180 Q220 200 200 210 Q180 220 160 215 Q140 210 120 200 Q100 180 90 160 Q85 140 80 120" 
        fill="url(#chickenGradient)" stroke="#e17055" stroke-width="2"/>
  
  <!-- Chicken texture lines -->
  <path d="M95 130 Q135 125 175 135" fill="none" stroke="#e17055" stroke-width="1" opacity="0.6"/>
  <path d="M100 145 Q140 140 180 150" fill="none" stroke="#e17055" stroke-width="1" opacity="0.6"/>
  <path d="M105 160 Q145 155 185 165" fill="none" stroke="#e17055" stroke-width="1" opacity="0.6"/>
  <path d="M110 175 Q150 170 185 180" fill="none" stroke="#e17055" stroke-width="1" opacity="0.6"/>
  <path d="M115 190 Q150 185 180 195" fill="none" stroke="#e17055" stroke-width="1" opacity="0.6"/>
  
  <!-- Packaging tray -->
  <rect x="50" y="200" width="200" height="80" rx="10" fill="#ffffff" stroke="#d0d0d0" stroke-width="2"/>
  <rect x="60" y="210" width="180" height="60" rx="5" fill="#f0f0f0" stroke="#c0c0c0" stroke-width="1"/>
  
  <!-- Label -->
  <rect x="70" y="220" width="160" height="40" rx="3" fill="#ffffff" stroke="#a0a0a0" stroke-width="1"/>
  <text x="150" y="235" text-anchor="middle" fill="#333" font-family="Arial, sans-serif" font-size="14" font-weight="bold">CHICKEN BREAST</text>
  <text x="150" y="250" text-anchor="middle" fill="#666" font-family="Arial, sans-serif" font-size="10">BONELESS • SKINLESS</text>
  
  <!-- Fresh sticker -->
  <circle cx="220" cy="130" r="25" fill="#27ae60" stroke="#1e8449" stroke-width="2"/>
  <text x="220" y="125" text-anchor="middle" fill="white" font-family="Arial, sans-serif" font-size="10" font-weight="bold">FRESH</text>
  <text x="220" y="138" text-anchor="middle" fill="white" font-family="Arial, sans-serif" font-size="8">DAILY</text>
  
  <!-- Shadow under tray -->
  <ellipse cx="150" cy="285" rx="90" ry="10" fill="#000000" opacity="0.1"/>
</svg> 