<svg width="300" height="300" viewBox="0 0 300 300" xmlns="http://www.w3.org/2000/svg">
  <defs>
    <linearGradient id="beefGradient" x1="0%" y1="0%" x2="100%" y2="100%">
      <stop offset="0%" style="stop-color:#8B0000;stop-opacity:1" />
      <stop offset="100%" style="stop-color:#A52A2A;stop-opacity:1" />
    </linearGradient>
  </defs>
  
  <!-- Background -->
  <rect x="0" y="0" width="300" height="300" fill="#f8f9fa"/>
  
  <!-- Ground beef in package -->
  <rect x="70" y="110" width="160" height="100" rx="10" fill="url(#beefGradient)" stroke="#654321" stroke-width="2"/>
  
  <!-- Meat texture -->
  <circle cx="90" cy="140" r="4" fill="#CD5C5C" opacity="0.8"/>
  <circle cx="110" cy="135" r="3" fill="#CD5C5C" opacity="0.8"/>
  <circle cx="130" cy="145" r="5" fill="#CD5C5C" opacity="0.8"/>
  <circle cx="150" cy="130" r="4" fill="#CD5C5C" opacity="0.8"/>
  <circle cx="170" cy="150" r="3" fill="#CD5C5C" opacity="0.8"/>
  <circle cx="190" cy="135" r="4" fill="#CD5C5C" opacity="0.8"/>
  <circle cx="210" cy="145" r="3" fill="#CD5C5C" opacity="0.8"/>
  
  <circle cx="85" cy="170" r="3" fill="#CD5C5C" opacity="0.8"/>
  <circle cx="105" cy="175" r="4" fill="#CD5C5C" opacity="0.8"/>
  <circle cx="125" cy="165" r="3" fill="#CD5C5C" opacity="0.8"/>
  <circle cx="145" cy="180" r="5" fill="#CD5C5C" opacity="0.8"/>
  <circle cx="165" cy="170" r="4" fill="#CD5C5C" opacity="0.8"/>
  <circle cx="185" cy="185" r="3" fill="#CD5C5C" opacity="0.8"/>
  <circle cx="205" cy="175" r="4" fill="#CD5C5C" opacity="0.8"/>
  
  <!-- Packaging tray -->
  <rect x="60" y="220" width="180" height="60" rx="10" fill="#ffffff" stroke="#d0d0d0" stroke-width="2"/>
  <rect x="70" y="230" width="160" height="40" rx="5" fill="#f0f0f0" stroke="#c0c0c0" stroke-width="1"/>
  
  <!-- Label -->
  <rect x="80" y="240" width="140" height="30" rx="3" fill="#ffffff" stroke="#a0a0a0" stroke-width="1"/>
  <text x="150" y="250" text-anchor="middle" fill="#333" font-family="Arial, sans-serif" font-size="12" font-weight="bold">GROUND BEEF</text>
  <text x="150" y="262" text-anchor="middle" fill="#666" font-family="Arial, sans-serif" font-size="10">80/20 • FRESH</text>
  
  <!-- Fresh badge -->
  <circle cx="200" cy="90" r="20" fill="#27ae60" stroke="#1e8449" stroke-width="2"/>
  <text x="200" y="87" text-anchor="middle" fill="white" font-family="Arial, sans-serif" font-size="8" font-weight="bold">FRESH</text>
  <text x="200" y="97" text-anchor="middle" fill="white" font-family="Arial, sans-serif" font-size="8">GROUND</text>
  
  <!-- 80/20 label -->
  <rect x="80" y="80" width="40" height="20" rx="3" fill="#e74c3c" stroke="#c0392b" stroke-width="1"/>
  <text x="100" y="92" text-anchor="middle" fill="white" font-family="Arial, sans-serif" font-size="10" font-weight="bold">80/20</text>
  
  <!-- Shadow -->
  <ellipse cx="150" cy="290" rx="70" ry="8" fill="#000000" opacity="0.1"/>
</svg> 