<svg width="300" height="300" viewBox="0 0 300 300" xmlns="http://www.w3.org/2000/svg">
  <defs>
    <linearGradient id="breadGradient" x1="0%" y1="0%" x2="100%" y2="100%">
      <stop offset="0%" style="stop-color:#D2691E;stop-opacity:1" />
      <stop offset="100%" style="stop-color:#8B4513;stop-opacity:1" />
    </linearGradient>
  </defs>
  
  <!-- Background -->
  <rect x="0" y="0" width="300" height="300" fill="#f8f9fa"/>
  
  <!-- Bread loaf -->
  <ellipse cx="150" cy="160" rx="80" ry="40" fill="url(#breadGradient)" stroke="#654321" stroke-width="2"/>
  
  <!-- Bread texture -->
  <ellipse cx="150" cy="155" rx="75" ry="35" fill="#CD853F" opacity="0.6"/>
  <ellipse cx="150" cy="150" rx="70" ry="30" fill="#D2691E" opacity="0.4"/>
  
  <!-- Bread slices -->
  <rect x="80" y="130" width="8" height="60" rx="4" fill="#F4A460" stroke="#8B4513" stroke-width="1"/>
  <rect x="90" y="125" width="8" height="70" rx="4" fill="#F4A460" stroke="#8B4513" stroke-width="1"/>
  <rect x="100" y="120" width="8" height="80" rx="4" fill="#F4A460" stroke="#8B4513" stroke-width="1"/>
  
  <!-- Bread packaging -->
  <rect x="60" y="210" width="180" height="60" rx="10" fill="#ffffff" stroke="#d0d0d0" stroke-width="2"/>
  <rect x="70" y="220" width="160" height="40" rx="5" fill="#f8f9fa" stroke="#c0c0c0" stroke-width="1"/>
  
  <!-- Sara Lee branding -->
  <text x="150" y="235" text-anchor="middle" fill="#c0392b" font-family="Arial, sans-serif" font-size="14" font-weight="bold">SARA LEE</text>
  <text x="150" y="250" text-anchor="middle" fill="#8B4513" font-family="Arial, sans-serif" font-size="10">WHOLE WHEAT BREAD</text>
  
  <!-- Wheat grain decoration -->
  <path d="M120 90 Q125 85 130 90 Q135 95 140 90" fill="none" stroke="#D2691E" stroke-width="2"/>
  <path d="M160 90 Q165 85 170 90 Q175 95 180 90" fill="none" stroke="#D2691E" stroke-width="2"/>
  
  <!-- Shadow -->
  <ellipse cx="150" cy="280" rx="70" ry="8" fill="#000000" opacity="0.1"/>
</svg> 